<svg width="22" height="21" viewBox="0 0 22 21" fill="currentColor" xmlns="http://www.w3.org/2000/svg">
<path d="M13.74 0.00600004L13.955 0.026C14.4815 0.0962202 14.9799 0.30495 15.3992 0.630861C15.8186 0.956772 16.144 1.38818 16.342 1.881L16.448 2.184C16.495 2.323 16.505 2.352 16.514 2.373L16.576 2.502C16.6589 2.64466 16.7757 2.76461 16.9162 2.85115C17.0566 2.9377 17.2163 2.98814 17.381 2.998L17.595 3C17.938 3 18.185 2.999 18.395 3.02L18.571 3.041C19.4559 3.1685 20.2727 3.58881 20.8908 4.23482C21.5088 4.88083 21.8927 5.7153 21.981 6.605L21.998 6.947C21.9993 7.07167 22 7.215 22 7.377V15.2C22 16.024 22.001 16.702 21.956 17.252C21.916 17.744 21.836 18.202 21.65 18.632L21.565 18.816C21.2303 19.4729 20.7205 20.0246 20.092 20.41L19.816 20.564C19.331 20.812 18.814 20.91 18.252 20.956C17.702 21.001 17.024 21 16.2 21H5.80001C4.97601 21 4.29801 21.001 3.74801 20.956C3.25601 20.916 2.79801 20.836 2.36801 20.65L2.18401 20.565C1.52708 20.2303 0.975434 19.7205 0.590008 19.092L0.436008 18.816C0.188008 18.331 0.0900076 17.814 0.0440076 17.252C0.0205016 16.9445 0.00716091 16.6364 0.00400751 16.328L7.56184e-06 15.2V7.377C7.56184e-06 7.051 -0.000992456 6.815 0.0200075 6.605L0.0410076 6.429C0.168511 5.54406 0.588818 4.72735 1.23483 4.10926C1.88084 3.49116 2.7153 3.10732 3.60501 3.019L3.95501 3.002C4.08501 3.00067 4.23501 3 4.40501 3C4.56201 3 4.59701 3 4.61901 2.998L4.76101 2.979C4.92244 2.94558 5.07311 2.87276 5.1996 2.76703C5.32609 2.66131 5.42448 2.52594 5.48601 2.373L5.55201 2.183C5.59001 2.07 5.62201 1.972 5.65801 1.881L5.74601 1.684C5.97904 1.20683 6.33456 0.800065 6.77624 0.505258C7.21793 0.21045 7.72995 0.0381646 8.26001 0.00600004L8.58001 0H13.418C13.538 0 13.642 4.19095e-08 13.74 0.00600004ZM11 6C9.40871 6 7.88259 6.63214 6.75737 7.75736C5.63215 8.88258 5.00001 10.4087 5.00001 12C5.00001 13.5913 5.63215 15.1174 6.75737 16.2426C7.88259 17.3679 9.40871 18 11 18C12.5913 18 14.1174 17.3679 15.2426 16.2426C16.3679 15.1174 17 13.5913 17 12C17 10.4087 16.3679 8.88258 15.2426 7.75736C14.1174 6.63214 12.5913 6 11 6ZM11 8C11.2122 8 11.4157 8.08429 11.5657 8.23431C11.7157 8.38434 11.8 8.58783 11.8 8.8V11.2H14.2C14.4122 11.2 14.6157 11.2843 14.7657 11.4343C14.9157 11.5843 15 11.7878 15 12C15 12.2122 14.9157 12.4157 14.7657 12.5657C14.6157 12.7157 14.4122 12.8 14.2 12.8H11.8V15.2C11.8 15.4122 11.7157 15.6157 11.5657 15.7657C11.4157 15.9157 11.2122 16 11 16C10.7878 16 10.5844 15.9157 10.4343 15.7657C10.2843 15.6157 10.2 15.4122 10.2 15.2V12.8H7.80001C7.58783 12.8 7.38435 12.7157 7.23432 12.5657C7.08429 12.4157 7.00001 12.2122 7.00001 12C7.00001 11.7878 7.08429 11.5843 7.23432 11.4343C7.38435 11.2843 7.58783 11.2 7.80001 11.2H10.2V8.8C10.2 8.58783 10.2843 8.38434 10.4343 8.23431C10.5844 8.08429 10.7878 8 11 8Z" fill="white"/>
</svg>
