<svg width="15" height="18" viewBox="0 0 15 18" fill="none" xmlns="http://www.w3.org/2000/svg">
<path d="M0.75 4.5H2.25M2.25 4.5H14.25M2.25 4.5V15C2.25 15.3978 2.40804 15.7794 2.68934 16.0607C2.97064 16.342 3.35218 16.5 3.75 16.5H11.25C11.6478 16.5 12.0294 16.342 12.3107 16.0607C12.592 15.7794 12.75 15.3978 12.75 15V4.5M4.5 4.5V3C4.5 2.60218 4.65804 2.22064 4.93934 1.93934C5.22064 1.65804 5.60218 1.5 6 1.5H9C9.39782 1.5 9.77936 1.65804 10.0607 1.93934C10.342 2.22064 10.5 2.60218 10.5 3V4.5M6 8.25V12.75M9 8.25V12.75" stroke="#7E7E7E" stroke-width="1.5" stroke-linecap="round" stroke-linejoin="round"/>
</svg>
