<svg width="17" height="18" viewBox="0 0 17 18" fill="none" xmlns="http://www.w3.org/2000/svg">
<path d="M7.75 3H2.5C2.10218 3 1.72064 3.15804 1.43934 3.43934C1.15804 3.72065 1 4.10218 1 4.5V15C1 15.3978 1.15804 15.7794 1.43934 16.0607C1.72064 16.342 2.10218 16.5 2.5 16.5H13C13.3978 16.5 13.7794 16.342 14.0607 16.0607C14.342 15.7794 14.5 15.3978 14.5 15V9.75M13.375 1.875C13.6734 1.57663 14.078 1.40901 14.5 1.40901C14.922 1.40901 15.3266 1.57663 15.625 1.875C15.9234 2.17337 16.091 2.57805 16.091 3C16.091 3.42196 15.9234 3.82663 15.625 4.125L8.5 11.25L5.5 12L6.25 9L13.375 1.875Z" stroke="#7E7E7E" stroke-width="1.5" stroke-linecap="round" stroke-linejoin="round"/>
</svg>
