<svg width="43" height="35" viewBox="0 0 43 35" fill="none" xmlns="http://www.w3.org/2000/svg">
<path fill-rule="evenodd" clip-rule="evenodd" d="M38.1742 17.4705C36.7646 15.3413 30.8727 7.36401 21.5 7.36401C12.1274 7.36401 6.23403 15.3398 4.82586 17.4705C4.72263 17.6237 4.66748 17.8043 4.66748 17.989C4.66748 18.1738 4.72263 18.3543 4.82586 18.5075C6.23544 20.6368 12.1274 28.614 21.5 28.614C30.8727 28.614 36.766 20.6382 38.1742 18.5075C38.2774 18.3543 38.3326 18.1738 38.3326 17.989C38.3326 17.8043 38.2774 17.6237 38.1742 17.4705ZM21.5 26.489C23.7544 26.489 25.9164 25.5935 27.5104 23.9994C29.1045 22.4054 30 20.2434 30 17.989C30 15.7347 29.1045 13.5727 27.5104 11.9786C25.9164 10.3845 23.7544 9.48901 21.5 9.48901C19.2457 9.48901 17.0837 10.3845 15.4896 11.9786C13.8956 13.5727 13 15.7347 13 17.989C13 20.2434 13.8956 22.4054 15.4896 23.9994C17.0837 25.5935 19.2457 26.489 21.5 26.489Z" fill="#678D77"/>
<path d="M21.5 22.239C23.8472 22.239 25.75 20.3362 25.75 17.989C25.75 15.6418 23.8472 13.739 21.5 13.739C19.1528 13.739 17.25 15.6418 17.25 17.989C17.25 20.3362 19.1528 22.239 21.5 22.239Z" fill="#678D77"/>
</svg>
