<svg width="43" height="34" viewBox="0 0 43 34" fill="currentColor" xmlns="http://www.w3.org/2000/svg">
<path fill-rule="evenodd" clip-rule="evenodd" d="M38.5492 16.4815C37.1396 14.3522 31.2477 6.375 21.875 6.375C12.5024 6.375 6.60903 14.3508 5.20086 16.4815C5.09763 16.6347 5.04248 16.8153 5.04248 17C5.04248 17.1847 5.09763 17.3653 5.20086 17.5185C6.61044 19.6477 12.5024 27.625 21.875 27.625C31.2477 27.625 37.141 19.6492 38.5492 17.5185C38.6524 17.3653 38.7076 17.1847 38.7076 17C38.7076 16.8153 38.6524 16.6347 38.5492 16.4815ZM21.875 25.5C24.1294 25.5 26.2914 24.6045 27.8854 23.0104C29.4795 21.4163 30.375 19.2543 30.375 17C30.375 14.7457 29.4795 12.5837 27.8854 10.9896C26.2914 9.39553 24.1294 8.5 21.875 8.5C19.6207 8.5 17.4587 9.39553 15.8646 10.9896C14.2706 12.5837 13.375 14.7457 13.375 17C13.375 19.2543 14.2706 21.4163 15.8646 23.0104C17.4587 24.6045 19.6207 25.5 21.875 25.5Z" fill="currentColor"/>
<path d="M21.875 21.25C24.2222 21.25 26.125 19.3472 26.125 17C26.125 14.6528 24.2222 12.75 21.875 12.75C19.5278 12.75 17.625 14.6528 17.625 17C17.625 19.3472 19.5278 21.25 21.875 21.25Z" fill="currentColor"/>
</svg>