<svg width="25" height="24" viewBox="0 0 25 24" fill="none" xmlns="http://www.w3.org/2000/svg">
<path fill-rule="evenodd" clip-rule="evenodd" d="M10.696 2.02696C10.8369 1.72045 11.0629 1.46089 11.3471 1.27917C11.6312 1.09745 11.9617 1.00123 12.299 1.00196C14.084 1.00196 15.575 2.41996 15.575 4.22196V7.30196H18.731C21.012 7.30196 22.813 9.29696 22.455 11.568L21.461 17.868C21.174 19.69 19.577 21.002 17.737 21.002H5.346C3.798 21.002 2.5 19.772 2.5 18.202V11.902C2.5 10.332 3.798 9.10196 5.346 9.10196H7.47L10.696 2.02696ZM9.114 19.002H17.737C18.63 19.002 19.357 18.37 19.486 17.557L20.479 11.257C20.637 10.257 19.843 9.30196 18.731 9.30196H15.498C14.46 9.30196 13.575 8.47496 13.575 7.40196V4.22196C13.575 3.61596 13.1 3.07996 12.445 3.00996L9.269 9.98196C9.22498 10.0775 9.17349 10.1695 9.115 10.257L9.114 19.002ZM7.114 11.102V19.002H5.346C4.855 19.002 4.5 18.62 4.5 18.202V11.902C4.5 11.484 4.855 11.102 5.346 11.102H7.114Z"/>
</svg>
