<svg width="180" height="35" viewBox="0 0 180 35" fill="none" xmlns="http://www.w3.org/2000/svg">
<path d="M10.3673 11.952H7.26325V26H2.71925V11.952H0.70325V8.272H2.71925V7.376C2.71925 5.2 3.33792 3.6 4.57525 2.576C5.81258 1.552 7.67925 1.072 10.1753 1.136V4.912C9.08725 4.89067 8.32992 5.072 7.90325 5.456C7.47658 5.84 7.26325 6.53333 7.26325 7.536V8.272H10.3673V11.952ZM15.5425 6.16C14.7532 6.16 14.0918 5.91467 13.5585 5.424C13.0465 4.912 12.7905 4.28267 12.7905 3.536C12.7905 2.78933 13.0465 2.17067 13.5585 1.68C14.0918 1.168 14.7532 0.911999 15.5425 0.911999C16.3318 0.911999 16.9825 1.168 17.4945 1.68C18.0278 2.17067 18.2945 2.78933 18.2945 3.536C18.2945 4.28267 18.0278 4.912 17.4945 5.424C16.9825 5.91467 16.3318 6.16 15.5425 6.16ZM17.7505 8.272V26H13.2705V8.272H17.7505ZM26.6568 2.32V26H22.1768V2.32H26.6568ZM53.099 8.016C55.275 8.016 57.0243 8.688 58.347 10.032C59.691 11.3547 60.363 13.2107 60.363 15.6V26H55.883V16.208C55.883 14.8213 55.531 13.7653 54.827 13.04C54.123 12.2933 53.163 11.92 51.947 11.92C50.731 11.92 49.7603 12.2933 49.035 13.04C48.331 13.7653 47.979 14.8213 47.979 16.208V26H43.499V16.208C43.499 14.8213 43.147 13.7653 42.443 13.04C41.739 12.2933 40.779 11.92 39.563 11.92C38.3257 11.92 37.3443 12.2933 36.619 13.04C35.915 13.7653 35.563 14.8213 35.563 16.208V26H31.083V8.272H35.563V10.416C36.139 9.66933 36.875 9.08267 37.771 8.656C38.6883 8.22933 39.691 8.016 40.779 8.016C42.1657 8.016 43.403 8.31467 44.491 8.912C45.579 9.488 46.4217 10.32 47.019 11.408C47.595 10.384 48.427 9.56267 49.515 8.944C50.6243 8.32533 51.819 8.016 53.099 8.016ZM72.4863 26.288C70.7796 26.288 69.2436 25.9147 67.8783 25.168C66.5129 24.4 65.4356 23.3227 64.6463 21.936C63.8783 20.5493 63.4943 18.9493 63.4943 17.136C63.4943 15.3227 63.8889 13.7227 64.6783 12.336C65.4889 10.9493 66.5876 9.88267 67.9743 9.136C69.3609 8.368 70.9076 7.984 72.6143 7.984C74.3209 7.984 75.8676 8.368 77.2543 9.136C78.6409 9.88267 79.7289 10.9493 80.5183 12.336C81.3289 13.7227 81.7343 15.3227 81.7343 17.136C81.7343 18.9493 81.3183 20.5493 80.4862 21.936C79.6756 23.3227 78.5663 24.4 77.1583 25.168C75.7716 25.9147 74.2143 26.288 72.4863 26.288ZM72.4863 22.384C73.2969 22.384 74.0543 22.192 74.7583 21.808C75.4836 21.4027 76.0596 20.8053 76.4863 20.016C76.9129 19.2267 77.1263 18.2667 77.1263 17.136C77.1263 15.4507 76.6783 14.16 75.7823 13.264C74.9076 12.3467 73.8303 11.888 72.5503 11.888C71.2703 11.888 70.1929 12.3467 69.3183 13.264C68.4649 14.16 68.0383 15.4507 68.0383 17.136C68.0383 18.8213 68.4543 20.1227 69.2863 21.04C70.1396 21.936 71.2063 22.384 72.4863 22.384ZM91.9645 7.984C93.2872 7.984 94.4498 8.25067 95.4525 8.784C96.4552 9.296 97.2445 9.968 97.8205 10.8V8.272H102.333V26.128C102.333 27.7707 102.002 29.232 101.341 30.512C100.679 31.8133 99.6872 32.8373 98.3645 33.584C97.0418 34.352 95.4418 34.736 93.5645 34.736C91.0472 34.736 88.9778 34.1493 87.3565 32.976C85.7565 31.8027 84.8498 30.2027 84.6365 28.176H89.0845C89.3192 28.9867 89.8205 29.6267 90.5885 30.096C91.3778 30.5867 92.3272 30.832 93.4365 30.832C94.7378 30.832 95.7938 30.4373 96.6045 29.648C97.4152 28.88 97.8205 27.7067 97.8205 26.128V23.376C97.2445 24.208 96.4445 24.9013 95.4205 25.456C94.4178 26.0107 93.2658 26.288 91.9645 26.288C90.4712 26.288 89.1058 25.904 87.8685 25.136C86.6312 24.368 85.6498 23.2907 84.9245 21.904C84.2205 20.496 83.8685 18.8853 83.8685 17.072C83.8685 15.28 84.2205 13.6907 84.9245 12.304C85.6498 10.9173 86.6205 9.85067 87.8365 9.104C89.0738 8.35733 90.4498 7.984 91.9645 7.984ZM97.8205 17.136C97.8205 16.048 97.6072 15.12 97.1805 14.352C96.7538 13.5627 96.1778 12.9653 95.4525 12.56C94.7272 12.1333 93.9485 11.92 93.1165 11.92C92.2845 11.92 91.5165 12.1227 90.8125 12.528C90.1085 12.9333 89.5325 13.5307 89.0845 14.32C88.6578 15.088 88.4445 16.0053 88.4445 17.072C88.4445 18.1387 88.6578 19.0773 89.0845 19.888C89.5325 20.6773 90.1085 21.2853 90.8125 21.712C91.5378 22.1387 92.3058 22.352 93.1165 22.352C93.9485 22.352 94.7272 22.1493 95.4525 21.744C96.1778 21.3173 96.7538 20.72 97.1805 19.952C97.6072 19.1627 97.8205 18.224 97.8205 17.136ZM111.188 11.024C111.764 10.0853 112.511 9.34933 113.428 8.816C114.367 8.28267 115.433 8.016 116.628 8.016V12.72H115.444C114.036 12.72 112.969 13.0507 112.244 13.712C111.54 14.3733 111.188 15.5253 111.188 17.168V26H106.708V8.272H111.188V11.024ZM118.493 17.072C118.493 15.28 118.845 13.6907 119.549 12.304C120.275 10.9173 121.246 9.85067 122.462 9.104C123.699 8.35733 125.075 7.984 126.59 7.984C127.912 7.984 129.064 8.25067 130.046 8.784C131.048 9.31733 131.848 9.98933 132.446 10.8V8.272H136.958V26H132.446V23.408C131.87 24.24 131.07 24.9333 130.046 25.488C129.043 26.0213 127.88 26.288 126.558 26.288C125.064 26.288 123.699 25.904 122.462 25.136C121.246 24.368 120.275 23.2907 119.549 21.904C118.845 20.496 118.493 18.8853 118.493 17.072ZM132.446 17.136C132.446 16.048 132.232 15.12 131.806 14.352C131.379 13.5627 130.803 12.9653 130.078 12.56C129.352 12.1333 128.574 11.92 127.742 11.92C126.91 11.92 126.142 12.1227 125.438 12.528C124.734 12.9333 124.158 13.5307 123.71 14.32C123.283 15.088 123.07 16.0053 123.07 17.072C123.07 18.1387 123.283 19.0773 123.71 19.888C124.158 20.6773 124.734 21.2853 125.438 21.712C126.163 22.1387 126.931 22.352 127.742 22.352C128.574 22.352 129.352 22.1493 130.078 21.744C130.803 21.3173 131.379 20.72 131.806 19.952C132.232 19.1627 132.446 18.224 132.446 17.136ZM145.813 10.832C146.389 10.0213 147.178 9.34933 148.181 8.816C149.205 8.26133 150.368 7.984 151.669 7.984C153.184 7.984 154.549 8.35733 155.765 9.104C157.002 9.85067 157.973 10.9173 158.677 12.304C159.402 13.6693 159.765 15.2587 159.765 17.072C159.765 18.8853 159.402 20.496 158.677 21.904C157.973 23.2907 157.002 24.368 155.765 25.136C154.549 25.904 153.184 26.288 151.669 26.288C150.368 26.288 149.216 26.0213 148.213 25.488C147.232 24.9547 146.432 24.2827 145.813 23.472V34.448H141.333V8.272H145.813V10.832ZM155.189 17.072C155.189 16.0053 154.965 15.088 154.517 14.32C154.09 13.5307 153.514 12.9333 152.789 12.528C152.085 12.1227 151.317 11.92 150.485 11.92C149.674 11.92 148.906 12.1333 148.181 12.56C147.477 12.9653 146.901 13.5627 146.453 14.352C146.026 15.1413 145.813 16.0693 145.813 17.136C145.813 18.2027 146.026 19.1307 146.453 19.92C146.901 20.7093 147.477 21.3173 148.181 21.744C148.906 22.1493 149.674 22.352 150.485 22.352C151.317 22.352 152.085 22.1387 152.789 21.712C153.514 21.2853 154.09 20.6773 154.517 19.888C154.965 19.0987 155.189 18.16 155.189 17.072ZM173.005 8.016C174.349 8.016 175.543 8.31467 176.589 8.912C177.634 9.488 178.445 10.352 179.021 11.504C179.618 12.6347 179.917 14 179.917 15.6V26H175.437V16.208C175.437 14.8 175.085 13.7227 174.381 12.976C173.677 12.208 172.717 11.824 171.501 11.824C170.263 11.824 169.282 12.208 168.557 12.976C167.853 13.7227 167.501 14.8 167.501 16.208V26H163.021V2.32H167.501V10.48C168.077 9.712 168.845 9.11467 169.805 8.688C170.765 8.24 171.831 8.016 173.005 8.016Z" fill="white"/>
</svg>
