<svg width="180" height="35" viewBox="0 0 180 35" fill="none" xmlns="http://www.w3.org/2000/svg">
<path d="M10.1798 11.952H7.07575V26H2.53175V11.952H0.51575V8.272H2.53175V7.376C2.53175 5.2 3.15042 3.6 4.38775 2.576C5.62508 1.552 7.49175 1.072 9.98775 1.136V4.912C8.89975 4.89067 8.14242 5.072 7.71575 5.456C7.28908 5.84 7.07575 6.53333 7.07575 7.536V8.272H10.1798V11.952ZM15.355 6.16C14.5657 6.16 13.9043 5.91467 13.371 5.424C12.859 4.912 12.603 4.28267 12.603 3.536C12.603 2.78933 12.859 2.17067 13.371 1.68C13.9043 1.168 14.5657 0.911999 15.355 0.911999C16.1443 0.911999 16.795 1.168 17.307 1.68C17.8403 2.17067 18.107 2.78933 18.107 3.536C18.107 4.28267 17.8403 4.912 17.307 5.424C16.795 5.91467 16.1443 6.16 15.355 6.16ZM17.563 8.272V26H13.083V8.272H17.563ZM26.4693 2.32V26H21.9893V2.32H26.4693ZM52.9115 8.016C55.0875 8.016 56.8368 8.688 58.1595 10.032C59.5035 11.3547 60.1755 13.2107 60.1755 15.6V26H55.6955V16.208C55.6955 14.8213 55.3435 13.7653 54.6395 13.04C53.9355 12.2933 52.9755 11.92 51.7595 11.92C50.5435 11.92 49.5728 12.2933 48.8475 13.04C48.1435 13.7653 47.7915 14.8213 47.7915 16.208V26H43.3115V16.208C43.3115 14.8213 42.9595 13.7653 42.2555 13.04C41.5515 12.2933 40.5915 11.92 39.3755 11.92C38.1382 11.92 37.1568 12.2933 36.4315 13.04C35.7275 13.7653 35.3755 14.8213 35.3755 16.208V26H30.8955V8.272H35.3755V10.416C35.9515 9.66933 36.6875 9.08267 37.5835 8.656C38.5008 8.22933 39.5035 8.016 40.5915 8.016C41.9782 8.016 43.2155 8.31467 44.3035 8.912C45.3915 9.488 46.2342 10.32 46.8315 11.408C47.4075 10.384 48.2395 9.56267 49.3275 8.944C50.4368 8.32533 51.6315 8.016 52.9115 8.016Z" fill="#A7C7AD"/>
<path d="M72.2988 26.288C70.5921 26.288 69.0561 25.9147 67.6908 25.168C66.3254 24.4 65.2481 23.3227 64.4588 21.936C63.6908 20.5493 63.3068 18.9493 63.3068 17.136C63.3068 15.3227 63.7014 13.7227 64.4908 12.336C65.3014 10.9493 66.4001 9.88267 67.7868 9.136C69.1734 8.368 70.7201 7.984 72.4268 7.984C74.1334 7.984 75.6801 8.368 77.0668 9.136C78.4534 9.88267 79.5414 10.9493 80.3308 12.336C81.1414 13.7227 81.5468 15.3227 81.5468 17.136C81.5468 18.9493 81.1308 20.5493 80.2987 21.936C79.4881 23.3227 78.3788 24.4 76.9708 25.168C75.5841 25.9147 74.0268 26.288 72.2988 26.288ZM72.2988 22.384C73.1094 22.384 73.8668 22.192 74.5708 21.808C75.2961 21.4027 75.8721 20.8053 76.2988 20.016C76.7254 19.2267 76.9388 18.2667 76.9388 17.136C76.9388 15.4507 76.4908 14.16 75.5948 13.264C74.7201 12.3467 73.6428 11.888 72.3628 11.888C71.0828 11.888 70.0054 12.3467 69.1308 13.264C68.2774 14.16 67.8508 15.4507 67.8508 17.136C67.8508 18.8213 68.2668 20.1227 69.0988 21.04C69.9521 21.936 71.0188 22.384 72.2988 22.384ZM91.777 7.984C93.0997 7.984 94.2623 8.25067 95.265 8.784C96.2677 9.296 97.057 9.968 97.633 10.8V8.272H102.145V26.128C102.145 27.7707 101.814 29.232 101.153 30.512C100.492 31.8133 99.4997 32.8373 98.177 33.584C96.8543 34.352 95.2543 34.736 93.377 34.736C90.8597 34.736 88.7903 34.1493 87.169 32.976C85.569 31.8027 84.6623 30.2027 84.449 28.176H88.897C89.1317 28.9867 89.633 29.6267 90.401 30.096C91.1903 30.5867 92.1397 30.832 93.249 30.832C94.5503 30.832 95.6063 30.4373 96.417 29.648C97.2277 28.88 97.633 27.7067 97.633 26.128V23.376C97.057 24.208 96.257 24.9013 95.233 25.456C94.2303 26.0107 93.0783 26.288 91.777 26.288C90.2837 26.288 88.9183 25.904 87.681 25.136C86.4437 24.368 85.4623 23.2907 84.737 21.904C84.033 20.496 83.681 18.8853 83.681 17.072C83.681 15.28 84.033 13.6907 84.737 12.304C85.4623 10.9173 86.433 9.85067 87.649 9.104C88.8863 8.35733 90.2623 7.984 91.777 7.984ZM97.633 17.136C97.633 16.048 97.4197 15.12 96.993 14.352C96.5663 13.5627 95.9903 12.9653 95.265 12.56C94.5397 12.1333 93.761 11.92 92.929 11.92C92.097 11.92 91.329 12.1227 90.625 12.528C89.921 12.9333 89.345 13.5307 88.897 14.32C88.4703 15.088 88.257 16.0053 88.257 17.072C88.257 18.1387 88.4703 19.0773 88.897 19.888C89.345 20.6773 89.921 21.2853 90.625 21.712C91.3503 22.1387 92.1183 22.352 92.929 22.352C93.761 22.352 94.5397 22.1493 95.265 21.744C95.9903 21.3173 96.5663 20.72 96.993 19.952C97.4197 19.1627 97.633 18.224 97.633 17.136ZM111.001 11.024C111.577 10.0853 112.323 9.34933 113.241 8.816C114.179 8.28267 115.246 8.016 116.441 8.016V12.72H115.257C113.849 12.72 112.782 13.0507 112.057 13.712C111.353 14.3733 111.001 15.5253 111.001 17.168V26H106.521V8.272H111.001V11.024ZM118.306 17.072C118.306 15.28 118.658 13.6907 119.362 12.304C120.087 10.9173 121.058 9.85067 122.274 9.104C123.511 8.35733 124.887 7.984 126.402 7.984C127.725 7.984 128.877 8.25067 129.858 8.784C130.861 9.31733 131.661 9.98933 132.258 10.8V8.272H136.77V26H132.258V23.408C131.682 24.24 130.882 24.9333 129.858 25.488C128.855 26.0213 127.693 26.288 126.37 26.288C124.877 26.288 123.511 25.904 122.274 25.136C121.058 24.368 120.087 23.2907 119.362 21.904C118.658 20.496 118.306 18.8853 118.306 17.072ZM132.258 17.136C132.258 16.048 132.045 15.12 131.618 14.352C131.191 13.5627 130.615 12.9653 129.89 12.56C129.165 12.1333 128.386 11.92 127.554 11.92C126.722 11.92 125.954 12.1227 125.25 12.528C124.546 12.9333 123.97 13.5307 123.522 14.32C123.095 15.088 122.882 16.0053 122.882 17.072C122.882 18.1387 123.095 19.0773 123.522 19.888C123.97 20.6773 124.546 21.2853 125.25 21.712C125.975 22.1387 126.743 22.352 127.554 22.352C128.386 22.352 129.165 22.1493 129.89 21.744C130.615 21.3173 131.191 20.72 131.618 19.952C132.045 19.1627 132.258 18.224 132.258 17.136ZM145.626 10.832C146.202 10.0213 146.991 9.34933 147.994 8.816C149.018 8.26133 150.18 7.984 151.482 7.984C152.996 7.984 154.362 8.35733 155.578 9.104C156.815 9.85067 157.786 10.9173 158.49 12.304C159.215 13.6693 159.578 15.2587 159.578 17.072C159.578 18.8853 159.215 20.496 158.49 21.904C157.786 23.2907 156.815 24.368 155.578 25.136C154.362 25.904 152.996 26.288 151.482 26.288C150.18 26.288 149.028 26.0213 148.026 25.488C147.044 24.9547 146.244 24.2827 145.626 23.472V34.448H141.146V8.272H145.626V10.832ZM155.002 17.072C155.002 16.0053 154.778 15.088 154.33 14.32C153.903 13.5307 153.327 12.9333 152.602 12.528C151.898 12.1227 151.13 11.92 150.298 11.92C149.487 11.92 148.719 12.1333 147.994 12.56C147.29 12.9653 146.714 13.5627 146.266 14.352C145.839 15.1413 145.626 16.0693 145.626 17.136C145.626 18.2027 145.839 19.1307 146.266 19.92C146.714 20.7093 147.29 21.3173 147.994 21.744C148.719 22.1493 149.487 22.352 150.298 22.352C151.13 22.352 151.898 22.1387 152.602 21.712C153.327 21.2853 153.903 20.6773 154.33 19.888C154.778 19.0987 155.002 18.16 155.002 17.072ZM172.817 8.016C174.161 8.016 175.356 8.31467 176.401 8.912C177.446 9.488 178.257 10.352 178.833 11.504C179.43 12.6347 179.729 14 179.729 15.6V26H175.249V16.208C175.249 14.8 174.897 13.7227 174.193 12.976C173.489 12.208 172.529 11.824 171.313 11.824C170.076 11.824 169.094 12.208 168.369 12.976C167.665 13.7227 167.313 14.8 167.313 16.208V26H162.833V2.32H167.313V10.48C167.889 9.712 168.657 9.11467 169.617 8.688C170.577 8.24 171.644 8.016 172.817 8.016Z" fill="#5F7A46"/>
</svg>
