<svg width="25" height="24" viewBox="0 0 25 24" fill="none" xmlns="http://www.w3.org/2000/svg">
<path fill-rule="evenodd" clip-rule="evenodd" d="M8.25989 2.00198H16.7399C17.5459 2.00198 18.2099 2.00198 18.7499 2.04498C19.3099 2.08998 19.8239 2.18498 20.3069 2.42498C21.0569 2.79798 21.6719 3.39498 22.0589 4.13598C22.3089 4.61598 22.4089 5.12598 22.4559 5.67798C22.4999 6.20798 22.4999 6.85698 22.4999 7.63998V12.99C22.4999 13.773 22.4999 14.423 22.4559 14.953C22.4089 15.504 22.3099 16.015 22.0589 16.494C21.6703 17.2351 21.057 17.8341 20.3069 18.205C19.8239 18.445 19.3099 18.541 18.7499 18.585C18.2099 18.628 17.5459 18.628 16.7399 18.628H10.1849C9.52189 18.628 9.32489 18.633 9.14589 18.668C8.96723 18.704 8.79656 18.7626 8.63389 18.844C8.47389 18.924 8.31989 19.038 7.80089 19.442L5.38789 21.325C5.20489 21.468 5.01789 21.615 4.85289 21.721C4.69289 21.823 4.39289 22.001 4.00289 22.002C3.55489 22.002 3.12489 21.805 2.83589 21.452C2.58289 21.142 2.53589 20.787 2.51889 20.6C2.50348 20.3803 2.49714 20.1601 2.49989 19.94V7.63998C2.49989 6.85598 2.49989 6.20598 2.54389 5.67698C2.59089 5.12498 2.68989 4.61498 2.94089 4.13498C3.32961 3.39423 3.94293 2.79561 4.69289 2.42498C5.17589 2.18498 5.68989 2.08898 6.24989 2.04398C6.78989 2.00098 7.45389 2.00098 8.25989 2.00098M6.40889 4.03898C5.96889 4.07398 5.74189 4.13798 5.58289 4.21598C5.2107 4.39884 4.90609 4.69504 4.71289 5.06198C4.63689 5.20898 4.57289 5.42098 4.53689 5.84498C4.50089 6.27998 4.49989 6.84598 4.49989 7.68198V19.48L6.56989 17.866L6.63689 17.813C7.05989 17.483 7.37889 17.235 7.74189 17.053C8.06189 16.894 8.40189 16.778 8.75289 16.708C9.15089 16.628 9.55689 16.628 10.0989 16.628H16.6999C17.5559 16.628 18.1399 16.628 18.5909 16.592C19.0309 16.557 19.2579 16.492 19.4169 16.414C19.7949 16.226 20.0979 15.928 20.2869 15.568C20.3629 15.422 20.4269 15.21 20.4629 14.786C20.4989 14.349 20.4999 13.784 20.4999 12.948V7.68198C20.4999 6.84598 20.4999 6.28098 20.4629 5.84498C20.4269 5.42098 20.3629 5.20898 20.2869 5.06198C20.0937 4.69504 19.7891 4.39884 19.4169 4.21598C19.2579 4.13798 19.0309 4.07398 18.5909 4.03898C18.1399 4.00298 17.5559 4.00198 16.6999 4.00198H8.29989C7.44389 4.00198 6.85989 4.00198 6.40889 4.03898Z" fill="#A0A0A0"/>
</svg>
