<svg width="16" height="16" viewBox="0 0 16 16" fill="none" xmlns="http://www.w3.org/2000/svg">
<g clip-path="url(#clip0_696_330)">
<path d="M1.74214 4.74203C1.78955 4.69318 1.84629 4.65435 1.90898 4.62783C1.97168 4.60131 2.03906 4.58765 2.10714 4.58765C2.17521 4.58765 2.24259 4.60131 2.30529 4.62783C2.36799 4.65435 2.42472 4.69318 2.47214 4.74203L8.11014 10.5094C8.20746 10.609 8.26194 10.7428 8.26194 10.882C8.26194 11.0213 8.20746 11.1551 8.11014 11.2547C8.06273 11.3034 8.00604 11.3422 7.9434 11.3686C7.88077 11.3951 7.81346 11.4087 7.74547 11.4087C7.67748 11.4087 7.61017 11.3951 7.54754 11.3686C7.4849 11.3422 7.42821 11.3034 7.3808 11.2547L1.74214 5.4867C1.64482 5.38706 1.59033 5.25331 1.59033 5.11403C1.59033 4.97475 1.64482 4.84166 1.74214 4.74203Z" fill="#141414"/>
<path d="M13.7455 4.74545C13.8428 4.84508 13.8973 4.97884 13.8973 5.11811C13.8973 5.25739 13.8428 5.39115 13.7455 5.49078L8.11081 11.2548C8.0634 11.3036 8.00666 11.3425 7.94396 11.369C7.88127 11.3955 7.81388 11.4092 7.74581 11.4092C7.67773 11.4092 7.61035 11.3955 7.54766 11.369C7.48496 11.3425 7.42822 11.3036 7.38081 11.2548C7.28349 11.1551 7.229 11.0214 7.229 10.8821C7.229 10.7428 7.28349 10.6091 7.38081 10.5094L13.0155 4.74545C13.0629 4.6966 13.1196 4.65777 13.1823 4.63125C13.245 4.60473 13.3124 4.59106 13.3805 4.59106C13.4485 4.59106 13.5159 4.60473 13.5786 4.63125C13.6413 4.65777 13.6981 4.6966 13.7455 4.74545Z" fill="#141414"/>
</g>
<defs>
<clipPath id="clip0_696_330">
<rect width="16" height="16" fill="white"/>
</clipPath>
</defs>
</svg>
