<svg width="59" height="62" viewBox="0 0 59 62" fill="none" xmlns="http://www.w3.org/2000/svg">
<path fill-rule="evenodd" clip-rule="evenodd" d="M56.2245 57.976L45.9345 47.611C45.7465 47.4224 45.4913 47.3161 45.225 47.3155H4.72499C4.19467 47.3147 3.68632 47.1036 3.31147 46.7284C2.93662 46.3533 2.72588 45.8448 2.72549 45.3145V4.8145C2.72549 3.7105 3.62249 2.8135 4.72499 2.8135H54.225C55.3275 2.8135 56.2245 3.7105 56.2245 4.8145V57.976ZM54.225 0.813995H4.72499C3.66435 0.815186 2.6475 1.23705 1.89752 1.98703C1.14754 2.73701 0.725678 3.75386 0.724487 4.8145V45.3145C0.725678 46.3751 1.14754 47.392 1.89752 48.142C2.6475 48.8919 3.66435 49.3138 4.72499 49.315H44.8095L56.5155 61.1065C56.6548 61.2476 56.8329 61.3441 57.0272 61.3837C57.2215 61.4232 57.4232 61.404 57.6066 61.3286C57.7899 61.2532 57.9467 61.1249 58.0569 60.96C58.1672 60.7952 58.2258 60.6013 58.2255 60.403V4.813C58.2235 3.75288 57.8013 2.7368 57.0514 1.98747C56.3015 1.23814 55.2851 0.815185 54.225 0.813995Z" fill="#D4D4D4"/>
<path fill-rule="evenodd" clip-rule="evenodd" d="M14.8289 34.489V29.458H19.8569V34.489H14.8289ZM17.3429 15.208C18.0658 15.208 18.759 15.4951 19.2702 16.0063C19.7813 16.5174 20.0684 17.2106 20.0684 17.9335C20.0684 18.6563 19.7813 19.3496 19.2702 19.8607C18.759 20.3718 18.0658 20.659 17.3429 20.659C16.6201 20.659 15.9268 20.3718 15.4157 19.8607C14.9046 19.3496 14.6174 18.6563 14.6174 17.9335C14.6174 17.2106 14.9046 16.5174 15.4157 16.0063C15.9268 15.4951 16.6201 15.208 17.3429 15.208ZM23.8394 26.944V23.5915H32.2229V26.944H23.8394ZM36.6149 13.864C42.2549 13.864 46.8299 17.194 46.8299 25.267C46.8299 33.34 42.2549 36.67 36.6149 36.67V13.864Z" fill="#D4D4D4"/>
</svg>