<svg width="34" height="42" viewBox="0 0 34 42" fill="none" xmlns="http://www.w3.org/2000/svg">
<path fill-rule="evenodd" clip-rule="evenodd" d="M30.6001 21C30.6001 20.6243 30.4508 20.2639 30.1852 19.9983C29.9195 19.7326 29.5592 19.5833 29.1834 19.5833H18.4168V8.81666C18.4168 8.44094 18.2675 8.0806 18.0018 7.81493C17.7362 7.54925 17.3758 7.39999 17.0001 7.39999C16.6244 7.39999 16.264 7.54925 15.9984 7.81493C15.7327 8.0806 15.5834 8.44094 15.5834 8.81666V19.5833H4.81676C4.44104 19.5833 4.08071 19.7326 3.81503 19.9983C3.54935 20.2639 3.4001 20.6243 3.4001 21C3.4001 21.3757 3.54935 21.7361 3.81503 22.0017C4.08071 22.2674 4.44104 22.4167 4.81676 22.4167H15.5834V33.1833C15.5834 33.5591 15.7327 33.9194 15.9984 34.1851C16.264 34.4507 16.6244 34.6 17.0001 34.6C17.3758 34.6 17.7362 34.4507 18.0018 34.1851C18.2675 33.9194 18.4168 33.5591 18.4168 33.1833V22.4167H29.1834C29.5592 22.4167 29.9195 22.2674 30.1852 22.0017C30.4508 21.7361 30.6001 21.3757 30.6001 21Z" fill="#7E7E7E"/>
</svg>
