<svg width="39" height="37" viewBox="0 0 39 37" fill="inherit" xmlns="http://www.w3.org/2000/svg">
<path d="M18.5971 0.91551C18.7107 0.685488 18.8863 0.491823 19.1042 0.356409C19.3221 0.220994 19.5735 0.149231 19.83 0.149231C20.0866 0.149231 20.338 0.220994 20.5558 0.356409C20.7737 0.491823 20.9494 0.685488 21.0629 0.91551L26.0533 11.0282C26.0861 11.0948 26.1346 11.1525 26.1946 11.1963C26.2547 11.24 26.3244 11.2685 26.3979 11.2793L37.5593 12.9018C37.8131 12.9387 38.0516 13.0459 38.2477 13.2112C38.4439 13.3765 38.5899 13.5933 38.6692 13.8373C38.7486 14.0812 38.7581 14.3425 38.6967 14.5915C38.6353 14.8406 38.5055 15.0675 38.3219 15.2467L30.2461 23.119C30.1929 23.1708 30.1531 23.2347 30.1302 23.3053C30.1072 23.3759 30.1017 23.451 30.1141 23.5242L32.0208 34.6397C32.0641 34.8927 32.0357 35.1527 31.9389 35.3904C31.8421 35.6281 31.6806 35.8339 31.4729 35.9847C31.2651 36.1354 31.0193 36.2249 30.7633 36.2432C30.5073 36.2615 30.2513 36.2077 30.0243 36.088L20.0418 30.841C19.9762 30.8066 19.9032 30.7887 19.8291 30.7887C19.755 30.7887 19.6821 30.8066 19.6164 30.841L9.63394 36.0917C9.40689 36.2114 9.15088 36.2651 8.89487 36.2469C8.63886 36.2286 8.39308 36.139 8.18533 35.9883C7.97757 35.8376 7.81615 35.6318 7.71933 35.3941C7.6225 35.1564 7.59413 34.8963 7.63744 34.6433L9.5441 23.526C9.55656 23.4528 9.55105 23.3777 9.52805 23.3072C9.50506 23.2366 9.46527 23.1726 9.4121 23.1208L1.33627 15.2467C1.15214 15.0676 1.02185 14.8405 0.960167 14.5912C0.89848 14.3419 0.907862 14.0802 0.98725 13.836C1.06664 13.5917 1.21286 13.3746 1.40934 13.2091C1.60582 13.0437 1.84471 12.9366 2.09894 12.9L13.2603 11.2793C13.3338 11.2685 13.4036 11.24 13.4636 11.1963C13.5236 11.1525 13.5721 11.0948 13.6049 11.0282L18.5971 0.91551Z" fill="inherit"/>
</svg>
